/* XPM */
static char * Bottom_xpm[] = {
"16 16 146 2",
"  	c #FFFFFF",
". 	c #3DADEC",
"+ 	c #3BB5EA",
"@ 	c #77CEF4",
"# 	c #5FBEEF",
"$ 	c #61BFEF",
"% 	c #61BCEE",
"& 	c #61BBED",
"* 	c #60BAEB",
"= 	c #5FB6EA",
"- 	c #5EB3E8",
"; 	c #5DB2E7",
"> 	c #5AB0E6",
", 	c #57ABE6",
"' 	c #76C3ED",
") 	c #3FA2E3",
"! 	c #2E8CDA",
"~ 	c #ABB6DE",
"{ 	c #40ACE9",
"] 	c #D1F8FF",
"^ 	c #DAFFFF",
"/ 	c #C4F6FF",
"( 	c #C8F9FF",
"_ 	c #CAFAFF",
": 	c #CAF9FF",
"< 	c #C9FAFF",
"[ 	c #C9FBFF",
"} 	c #C8FBFF",
"| 	c #C7FAFF",
"1 	c #DEFFFF",
"2 	c #A9E7FA",
"3 	c #3C8FD7",
"4 	c #798BC8",
"5 	c #2291DF",
"6 	c #72D6F6",
"7 	c #78E3FF",
"8 	c #65D2F7",
"9 	c #65D5F7",
"0 	c #63D3F9",
"a 	c #62D2F6",
"b 	c #60CFF6",
"c 	c #5BCAF5",
"d 	c #71E5FF",
"e 	c #42B9EE",
"f 	c #0052C0",
"g 	c #778AC7",
"h 	c #A1AEDA",
"i 	c #1B7BD6",
"j 	c #7BD7F7",
"k 	c #7BE0FE",
"l 	c #67CEF6",
"m 	c #6CD0F6",
"n 	c #69D0F6",
"o 	c #64CBF5",
"p 	c #75E0FE",
"q 	c #50C0EE",
"r 	c #0E61C2",
"s 	c #5C72BC",
"t 	c #909FD3",
"u 	c #2278CC",
"v 	c #7ADBF7",
"w 	c #5DD1F7",
"x 	c #5BC6F1",
"y 	c #58C2F1",
"z 	c #61D4FA",
"A 	c #4EC4F7",
"B 	c #0456BC",
"C 	c #6D81C3",
"D 	c #8494CE",
"E 	c #1D6FC8",
"F 	c #68CEF5",
"G 	c #45C0F2",
"H 	c #50C7F2",
"I 	c #46BDF2",
"J 	c #0752B7",
"K 	c #3752AD",
"L 	c #8394CD",
"M 	c #1961BD",
"N 	c #64D3F8",
"O 	c #39C1F7",
"P 	c #0E56B9",
"Q 	c #465FB3",
"R 	c #A0ADD9",
"S 	c #3A83CF",
"T 	c #1B6FC5",
"U 	c #3651AD",
"V 	c #BEC7E5",
"W 	c #5D73BD",
"X 	c #1D68BF",
"Y 	c #7EC6EE",
"Z 	c #6FB0DF",
"` 	c #6EB3E0",
" .	c #6CB1DF",
"..	c #6BAFDF",
"+.	c #69ADDF",
"@.	c #67ABDC",
"#.	c #65ACDC",
"$.	c #62AADC",
"%.	c #66ABDC",
"&.	c #60A8DA",
"*.	c #5EA6D9",
"=.	c #59A2D5",
"-.	c #6DBCE6",
";.	c #174DA3",
">.	c #4376C2",
",.	c #9BFFFF",
"'.	c #3FC0F2",
").	c #52C8F4",
"!.	c #4DC5F5",
"~.	c #4BC5F3",
"{.	c #48C2F3",
"].	c #44BEF2",
"^.	c #3EBDF1",
"/.	c #3EBBF4",
"(.	c #3BBAF2",
"_.	c #36B8F0",
":.	c #31ADEC",
"<.	c #3CD7FF",
"[.	c #0949A2",
"}.	c #4377BD",
"|.	c #6FE5FF",
"1.	c #0999E9",
"2.	c #1FA8ED",
"3.	c #1CA3EC",
"4.	c #17A1EC",
"5.	c #179EED",
"6.	c #139EEC",
"7.	c #1097E8",
"8.	c #0E97E7",
"9.	c #0A94E5",
"0.	c #0890E5",
"a.	c #058DE4",
"b.	c #038BE0",
"c.	c #039EF5",
"d.	c #0042A2",
"e.	c #0640A1",
"f.	c #053B9D",
"g.	c #093D9E",
"h.	c #093D9F",
"i.	c #0A3E9F",
"j.	c #0A3E9E",
"k.	c #0B3E9F",
"l.	c #0B3F9F",
"m.	c #0C3F9F",
"n.	c #0C409F",
"o.	c #0C44A3",
"                                ",
"                                ",
". + @ # $ % & * = - ; > , ' ) ! ",
"~ { ] ^ / ( _ : < [ } | 1 2 3 4 ",
"  ~ 5 6 7 8 9 0 a b c d e f g   ",
"    h i j k l m n o p q r s     ",
"      t u v w x y z A B C       ",
"        D E F G H I J K         ",
"          L M N O P Q           ",
"            R S T U             ",
"              V W               ",
"X Y Z `  ...+.@.#.$.%.&.*.=.-.;.",
">.,.'.).!.~.{.G ].^./.(._.:.<.[.",
"}.|.1.2.3.4.5.6.7.8.9.0.a.b.c.d.",
"e.f.g.g.h.i.j.i.i.i.k.l.l.m.n.o.",
"                                "};
