/* XPM */
static char const* down_arrow_xpm[] = {
"16 16 70 1",
" 	c #FFFFFF",
".	c #007CC3",
"+	c #0077BE",
"@	c #5CB1E1",
"#	c #75C5F0",
"$	c #6FC1EE",
"%	c #6FC2EE",
"&	c #70C2EE",
"*	c #007AC1",
"=	c #68BDEB",
"-	c #69BDEB",
";	c #5FB7E7",
">	c #5FB8E8",
",	c #60B8E8",
"'	c #0078BE",
")	c #0075BB",
"!	c #56B1E4",
"~	c #56B2E4",
"{	c #55B2E4",
"]	c #0071B7",
"^	c #4CABDF",
"/	c #4BABE0",
"(	c #4BABDF",
"_	c #006DB3",
":	c #40A4DB",
"<	c #40A4DC",
"[	c #D4E7F3",
"}	c #0069AF",
"|	c #359DD7",
"1	c #349DD7",
"2	c #349DD8",
"3	c #359DD8",
"4	c #006AAE",
"5	c #C9E2F0",
"6	c #95C2E0",
"7	c #0065AB",
"8	c #218CCB",
"9	c #2A96D3",
"0	c #2996D3",
"a	c #5FA4CF",
"b	c #FEFFFF",
"c	c #96C0DE",
"d	c #0061A7",
"e	c #1886C7",
"f	c #1F90CF",
"g	c #1F8FCF",
"h	c #7BB2D6",
"i	c #A3C7E1",
"j	c #005FA4",
"k	c #1181C4",
"l	c #168ACC",
"m	c #158ACB",
"n	c #1589CB",
"o	c #1182C4",
"p	c #79B0D3",
"q	c #96BEDB",
"r	c #005CA1",
"s	c #0A7DC2",
"t	c #0D84C7",
"u	c #0D84C8",
"v	c #7BAFD2",
"w	c #A3C4DE",
"x	c #005A9F",
"y	c #047ABF",
"z	c #057ABF",
"A	c #7AADD1",
"B	c #96BBD8",
"C	c #73A6CC",
"D	c #93B9D7",
"E	c #7BACCF",
"     ......     ",
"     +@##@.     ",
"     .$%%&.     ",
"     *=-==*     ",
"     +;>,,'     ",
"     )!!~{)     ",
"     ]^//(]     ",
"     _:<::_     ",
"[}}}}}|123}}4}}5",
" 6789990999987ab",
"  cdefggggfedhb ",
"   ijklmmnojp   ",
"    qrstusrvb   ",
"     wxyzxA     ",
"      BxxCb     ",
"       DE       "};
