/* XPM */
static char const* Expand_xpm[] = {
"16 16 175 2",
"  	c #6AC7F0",
". 	c #8AD4F4",
"+ 	c #87D3F3",
"@ 	c #88D5F5",
"# 	c #75CDF2",
"$ 	c #54B9EC",
"% 	c #FFFFFF",
"& 	c #FEFFFF",
"* 	c #77CEF3",
"= 	c #86D5F5",
"- 	c #80D1F4",
"; 	c #88D4F5",
"> 	c #69C5F0",
", 	c #84D0F3",
"' 	c #BCEFFE",
") 	c #A7E7FB",
"! 	c #9DE4F9",
"~ 	c #69C1EF",
"{ 	c #E8F5FD",
"] 	c #EBF7FD",
"^ 	c #60BDED",
"/ 	c #9BE3FB",
"( 	c #A4E6FB",
"_ 	c #ACECFD",
": 	c #6EC9F2",
"< 	c #80CBEF",
"[ 	c #A5E7FB",
"} 	c #8ADDFA",
"| 	c #72D0F1",
"1 	c #77BEEC",
"2 	c #67B6EA",
"3 	c #9CE0F8",
"4 	c #8ADEFA",
"5 	c #95E3FA",
"6 	c #63C0EE",
"7 	c #7DCAEF",
"8 	c #93E2F9",
"9 	c #76D3F4",
"0 	c #98E4FB",
"a 	c #64C1EF",
"b 	c #83C0EB",
"c 	c #5CAFE6",
"d 	c #BAECF9",
"e 	c #A1E9FC",
"f 	c #6BC9F1",
"g 	c #8BE0F9",
"h 	c #66C1EE",
"i 	c #63BDE9",
"j 	c #57AEE5",
"k 	c #56A8E3",
"l 	c #78D3F4",
"m 	c #93E5FC",
"n 	c #5FBEEB",
"o 	c #80BCE8",
"p 	c #5FAEE5",
"q 	c #B9E9FA",
"r 	c #9BE9FD",
"s 	c #56BAEA",
"t 	c #79B9E8",
"u 	c #56AEE5",
"v 	c #53B4E8",
"w 	c #449DDC",
"x 	c #ECF5FC",
"y 	c #55A5E2",
"z 	c #6FCDF2",
"A 	c #8CE2FC",
"B 	c #58B8EA",
"C 	c #80B8E6",
"D 	c #63ACE1",
"E 	c #B8EAF9",
"F 	c #95E7FE",
"G 	c #4FB4E8",
"H 	c #7EB9E7",
"I 	c #E7F2FB",
"J 	c #439BDC",
"K 	c #4B9BDD",
"L 	c #68C9F1",
"M 	c #80DCFB",
"N 	c #9BDAF2",
"O 	c #91E3FD",
"P 	c #48ADE6",
"Q 	c #7CB5E4",
"R 	c #559DDA",
"S 	c #59BDED",
"T 	c #70CEF4",
"U 	c #6BD0F6",
"V 	c #45A7E3",
"W 	c #88B8E4",
"X 	c #609DD8",
"Y 	c #76C8ED",
"Z 	c #5BC8F3",
"` 	c #65CEF4",
" .	c #42A2E0",
"..	c #88B3E1",
"+.	c #4E92D3",
"@.	c #87D5F2",
"#.	c #60CDF5",
"$.	c #3DA0DF",
"%.	c #49B1E7",
"&.	c #5DCDF5",
"*.	c #3F9FDF",
"=.	c #79A8DB",
"-.	c #3780CA",
";.	c #EAF2FA",
">.	c #538ED0",
",.	c #85D4F3",
"'.	c #54CAF7",
").	c #3095DA",
"!.	c #7EA8DB",
"~.	c #4F8DD0",
"{.	c #43B0E9",
"].	c #52C8F5",
"^.	c #3899DD",
"/.	c #79A4D9",
"(.	c #E5EEF8",
"_.	c #3680CA",
":.	c #4C9DD9",
"<.	c #478DD1",
"[.	c #5387CB",
"}.	c #83D2F1",
"|.	c #4AC4F5",
"1.	c #2B8FD8",
"2.	c #76A0D6",
"3.	c #4986CC",
"4.	c #3AAAE6",
"5.	c #46C2F4",
"6.	c #3293D9",
"7.	c #6F97D2",
"8.	c #5797D2",
"9.	c #4B9AD8",
"0.	c #4D9EDA",
"a.	c #39B0EB",
"b.	c #55B5E8",
"c.	c #46BFF1",
"d.	c #2186D4",
"e.	c #79A0D5",
"f.	c #427DC7",
"g.	c #30A3E4",
"h.	c #36B8F0",
"i.	c #2C91D9",
"j.	c #68CBF1",
"k.	c #338DD6",
"l.	c #4191D3",
"m.	c #2EAEE9",
"n.	c #1EA1E6",
"o.	c #208ED9",
"p.	c #6E93CC",
"q.	c #497DC4",
"r.	c #279ADF",
"s.	c #27A7E7",
"t.	c #20A6E8",
"u.	c #2B82CF",
"v.	c #3793D5",
"w.	c #21AFED",
"x.	c #19A1E6",
"y.	c #1D9EE6",
"z.	c #347CC6",
"A.	c #E3EBF6",
"B.	c #E7EDF7",
"C.	c #4B8ACA",
"D.	c #3FB7EB",
"E.	c #139DE5",
"F.	c #1DAAEC",
"G.	c #217DCE",
"H.	c #3378C1",
"I.	c #207CCA",
"J.	c #2076C6",
"K.	c #146FC4",
"L.	c #2C65B5",
"M.	c #FEFEFF",
"N.	c #2966B6",
"O.	c #3488CB",
"P.	c #1F76C6",
"Q.	c #1F7ACA",
"R.	c #2B71BF",
"  . + @ # $ % % % & $ * = - ; > ",
", ' ) ! ~ { % % % % ] ^ / ( _ : ",
"< [ } | 1 % % % % % % 2 3 4 5 6 ",
"7 8 9 0 a b % % % % c d e f g h ",
"i j k l m n o % % p q r s t u v ",
"w x % y z A B C D E F G H % I J ",
"% % % % K L M G N O P Q % % % % ",
"% % % % % R S T U V W % % % % % ",
"% % % % % X Y Z `  ...% % % % % ",
"% % % % +.@.#.$.%.&.*.=.% % % % ",
"-.;.% >.,.'.).!.~.{.].^./.% (._.",
":.<.[.}.|.1.2.% % 3.4.5.6.7.8.9.",
"0.a.b.c.d.e.% % % % f.g.h.i.j.k.",
"l.m.n.o.p.% % % % % % q.r.s.t.u.",
"v.w.x.y.z.A.% % % % B.C.D.E.F.G.",
"H.I.J.I.K.L.% % % M.N.O.I.P.Q.R."};
