/* XPM */
static char const* Filter_xpm[] = {
"16 16 124 2",
"  	c #D3ECF9",
". 	c #ACDBF4",
"+ 	c #89CCF0",
"@ 	c #7DCBF1",
"# 	c #6DC5EF",
"$ 	c #6CC5F0",
"% 	c #7ACDF4",
"& 	c #7CCEF4",
"* 	c #6EC5F0",
"= 	c #6DC6EF",
"- 	c #7ECAF1",
"; 	c #8BCEF2",
"> 	c #ADDBF5",
", 	c #D3ECFA",
"' 	c #54AFE5",
") 	c #5BB7E7",
"! 	c #4EB2E5",
"~ 	c #1A93DB",
"{ 	c #1E98DC",
"] 	c #1E97DD",
"^ 	c #1A96DC",
"/ 	c #1B95DD",
"( 	c #2099DF",
"_ 	c #299DE0",
": 	c #2A9FE1",
"< 	c #29A0E2",
"[ 	c #43AAE0",
"} 	c #52AFE2",
"| 	c #54B0E4",
"1 	c #E7F3FB",
"2 	c #90C9EC",
"3 	c #FAFEFE",
"4 	c #FFFFFF",
"5 	c #F3F4F6",
"6 	c #F4F3F2",
"7 	c #DFE9EE",
"8 	c #AAD5E7",
"9 	c #A1CFE2",
"0 	c #D7E2E6",
"a 	c #A8C9D9",
"b 	c #78B2CF",
"c 	c #96B7CA",
"d 	c #ADC4D3",
"e 	c #8EC6EB",
"f 	c #E7F3FC",
"g 	c #6CB4E5",
"h 	c #C3EEFB",
"i 	c #B9E8FA",
"j 	c #C6E8F7",
"k 	c #E0EEF5",
"l 	c #EAF0F3",
"m 	c #E9EDF1",
"n 	c #DBE9EE",
"o 	c #64A9DA",
"p 	c #59A2D6",
"q 	c #5DABE0",
"r 	c #61B0E4",
"s 	c #F0F7FD",
"t 	c #5AACE1",
"u 	c #91DEF8",
"v 	c #5DC5F1",
"w 	c #66C6F2",
"x 	c #63C3F1",
"y 	c #6ACBF4",
"z 	c #44AFE8",
"A 	c #1D85D9",
"B 	c #3193DF",
"C 	c #409FE1",
"D 	c #F6FBFE",
"E 	c #D2E5F5",
"F 	c #7CBBE5",
"G 	c #8FDBF8",
"H 	c #63C4EE",
"I 	c #6CC7EF",
"J 	c #6CC9F2",
"K 	c #3793DC",
"L 	c #2C85D5",
"M 	c #3C98D9",
"N 	c #D6E7F6",
"O 	c #B9D6EF",
"P 	c #88C5E9",
"Q 	c #76CFF3",
"R 	c #64C2EF",
"S 	c #58B3E7",
"T 	c #267DD1",
"U 	c #338CD5",
"V 	c #C0DBF1",
"W 	c #8BB8E2",
"X 	c #81C6EA",
"Y 	c #61C2EF",
"Z 	c #3A98DA",
"` 	c #2478CB",
" .	c #8EBDE3",
"..	c #58A5DA",
"+.	c #66C8F2",
"@.	c #2A84D1",
"#.	c #2C7FCB",
"$.	c #53A2D8",
"%.	c #5FC4F1",
"&.	c #247ECE",
"*.	c #277AC7",
"=.	c #4E9CD5",
"-.	c #53BFEE",
";.	c #2078CB",
">.	c #226FC2",
",.	c #4A99D2",
"'.	c #49B8EC",
").	c #1B71C6",
"!.	c #1F6BBE",
"~.	c #4694D0",
"{.	c #3EB2E9",
"].	c #146BC0",
"^.	c #1D67BA",
"/.	c #3F90CD",
"(.	c #30AFEA",
"_.	c #0E66BD",
":.	c #1762B5",
"<.	c #3C93D0",
"[.	c #27A5E8",
"}.	c #0F57AD",
"|.	c #4C7BBC",
"1.	c #2268B4",
"2.	c #749DD0",
"3.	c #D9E2F0",
"  . + @ # # $ % & * # = - ; > , ",
"' ) ! ~ { ] ] ^ / ( _ : < [ } | ",
"1 2 3 4 5 6 7 8 9 0 a b c d e f ",
"4 4 g h i j k l m n o p q r 4 4 ",
"4 4 s t u v w x y z A B C D 4 4 ",
"4 4 4 E F G H I J K L M N 4 4 4 ",
"4 4 4 4 O P Q R S T U V 4 4 4 4 ",
"4 4 4 4 4 W X Y Z `  .4 4 4 4 4 ",
"4 4 4 4 4 4 ..+.@.#.4 4 4 4 4 4 ",
"4 4 4 4 4 4 $.%.&.*.4 4 4 4 4 4 ",
"4 4 4 4 4 4 =.-.;.>.4 4 4 4 4 4 ",
"4 4 4 4 4 4 ,.'.).!.4 4 4 4 4 4 ",
"4 4 4 4 4 4 ~.{.].^.4 4 4 4 4 4 ",
"4 4 4 4 4 4 /.(._.:.4 4 4 4 4 4 ",
"4 4 4 4 4 4 <.[.}.|.4 4 4 4 4 4 ",
"4 4 4 4 4 4 1.2.3.4 4 4 4 4 4 4 "};
