/* XPM */
static char const* left_arrow_xpm[] = {
"16 16 59 1",
" 	c #FFFFFF",
".	c #FEFFFF",
"+	c #C9E2F0",
"@	c #5FA4CF",
"#	c #0069AF",
"$	c #7BB2D6",
"%	c #0065AB",
"&	c #79B0D3",
"*	c #0061A7",
"=	c #65BBEA",
"-	c #006AAE",
";	c #7BAFD2",
">	c #005FA4",
",	c #5EB7E7",
"'	c #7CC9F3",
")	c #7AADD1",
"!	c #005CA1",
"~	c #54B0E3",
"{	c #6EC0ED",
"]	c #006DB3",
"^	c #0071B7",
"/	c #0075BB",
"(	c #0078BE",
"_	c #007AC1",
":	c #007CC3",
"<	c #73A6CC",
"[	c #005A9F",
"}	c #48A8DE",
"|	c #5DB6E7",
"1	c #5EB6E7",
"2	c #5DB6E6",
"3	c #7BACCF",
"4	c #2C8FCB",
"5	c #4BABE0",
"6	c #4CABE0",
"7	c #93B9D7",
"8	c #3AA0D9",
"9	c #399FD9",
"0	c #39A0D9",
"a	c #3A9FD9",
"b	c #96BBD8",
"c	c #1E86C6",
"d	c #2795D2",
"e	c #2895D2",
"f	c #2794D2",
"g	c #2894D2",
"h	c #A3C4DE",
"i	c #117FC1",
"j	c #178BCC",
"k	c #178ACC",
"l	c #0077BE",
"m	c #96BEDB",
"n	c #0778BD",
"o	c #0982C6",
"p	c #A3C7E1",
"q	c #0074BA",
"r	c #96C0DE",
"s	c #95C2E0",
"t	c #D4E7F3",
"      .+        ",
"     .@#        ",
"     $%#        ",
"   .&*=-        ",
"   ;>,'#        ",
" .)!~{{#]^/(_:::",
" <[}|||11|1211|:",
"3[4556666666566:",
"7[48990aaa99090:",
" b[cdeefgdgdgef:",
"  h!ijk#]^/l_:l:",
"   m>no#        ",
"    p*q#        ",
"     r%#        ",
"      s#        ",
"       t        "};
