/* XPM */
static char * Linux_xpm[] = {
"16 16 134 2",
"  	c #FFFFFF",
". 	c #D7D7D7",
"+ 	c #A8A8A8",
"@ 	c #A1A1A1",
"# 	c #7F7F7F",
"$ 	c #F6F6F6",
"% 	c #535353",
"& 	c #444444",
"* 	c #898989",
"= 	c #D5D5D5",
"- 	c #888B8F",
"; 	c #373E49",
"> 	c #969CA5",
", 	c #37383B",
"' 	c #454545",
") 	c #DEDEDE",
"! 	c #AC906A",
"~ 	c #BA906E",
"{ 	c #BC9873",
"] 	c #6F675F",
"^ 	c #434343",
"/ 	c #EAE8E6",
"( 	c #C68F13",
"_ 	c #FFF559",
": 	c #FFD425",
"< 	c #7E5703",
"[ 	c #474747",
"} 	c #B1B1B1",
"| 	c #A08654",
"1 	c #A59D91",
"2 	c #0D0D0D",
"3 	c #F2F2F2",
"4 	c #1A1C1D",
"5 	c #C1C4CB",
"6 	c #ECE8E9",
"7 	c #ECECF3",
"8 	c #E8E7EE",
"9 	c #0B0A07",
"0 	c #424242",
"a 	c #6E6E6D",
"b 	c #1D1D1E",
"c 	c #FDFBF8",
"d 	c #F7F9FA",
"e 	c #F3F4F5",
"f 	c #FFFFFE",
"g 	c #686665",
"h 	c #020303",
"i 	c #7E7E7E",
"j 	c #CBCBCB",
"k 	c #ADAEB0",
"l 	c #FBFBFC",
"m 	c #D6D6D7",
"n 	c #111110",
"o 	c #121111",
"p 	c #66686B",
"q 	c #E0DEDC",
"r 	c #F5F4F5",
"s 	c #F7F8F8",
"t 	c #F8F7F7",
"u 	c #F9F8F7",
"v 	c #FBFCFD",
"w 	c #4D4C4D",
"x 	c #000000",
"y 	c #868788",
"z 	c #4F4F50",
"A 	c #636366",
"B 	c #EBE6E0",
"C 	c #E7E2DB",
"D 	c #E7E3DD",
"E 	c #E9E5E0",
"F 	c #EAE9E4",
"G 	c #DCD7D2",
"H 	c #414042",
"I 	c #07111F",
"J 	c #8A8A8C",
"K 	c #FFE4C9",
"L 	c #EFD79D",
"M 	c #9D7543",
"N 	c #747171",
"O 	c #FDF1E5",
"P 	c #E5D8CB",
"Q 	c #E2D8CB",
"R 	c #E6E2DC",
"S 	c #F2BB81",
"T 	c #5C452D",
"U 	c #504940",
"V 	c #CFB08A",
"W 	c #F6BD87",
"X 	c #FEBC72",
"Y 	c #FFEABE",
"Z 	c #FFD486",
"` 	c #1C0000",
" .	c #8E9190",
"..	c #FFFFEE",
"+.	c #F9ECDE",
"@.	c #FCF4EC",
"#.	c #FFB86E",
"$.	c #FFC26F",
"%.	c #FFD76D",
"&.	c #FFCA2F",
"*.	c #F9DAB9",
"=.	c #F8C267",
"-.	c #FFC231",
";.	c #FFC160",
">.	c #FFC777",
",.	c #DD8E41",
"'.	c #D0BFAE",
").	c #F6F3F6",
"!.	c #EFA542",
"~.	c #FFBE30",
"{.	c #FFCE28",
"].	c #FFE014",
"^.	c #F9DA65",
"/.	c #F6D96D",
"(.	c #FFE818",
"_.	c #FDD819",
":.	c #FFD327",
"<.	c #FFE532",
"[.	c #A57D41",
"}.	c #6A6A74",
"|.	c #73706F",
"1.	c #5D5451",
"2.	c #E6C11C",
"3.	c #FFE514",
"4.	c #FFE81B",
"5.	c #FEF6BF",
"6.	c #FFFFFC",
"7.	c #FDF7EA",
"8.	c #FAE771",
"9.	c #FFF25A",
"0.	c #F1ECDC",
"a.	c #FFF97A",
"b.	c #FFEE5A",
"c.	c #FFFCE2",
"            . + @ #             ",
"          $ % & & & *           ",
"          = - ; > , '           ",
"          ) ! ~ { ] ^           ",
"          / ( _ : < [           ",
"          } | : : 1 2 3         ",
"          4 5 6 7 8 9 0         ",
"        a b c d e f g h i       ",
"      j b k   l l   m n o .     ",
"      p b q r s t u v w x y     ",
"      z A B C D E F G H I J     ",
"    K L M N O P Q R S T U V     ",
"  W X Y Z `  ...+.@.#.$.%.&.*.  ",
"  =.-.;.>.,.'.    ).!.~.{.].^.  ",
"  /.(._.:.<.[.}.|.1.2.3.4.5.    ",
"    6.7.8.9.0.      a.b.c.      "};
