/* XPM */
static char * martini_xpm[] = {
"22 24 2 1",
" 	c None",
".	c #444444",
"               .      ",
"               .      ",
"......................",
" ..          ..    .. ",
"  ..         .    ..  ",
"   ..      ...   ..   ",
"    ..    ....  ..    ",
"     ...  .......     ",
"      ... ......      ",
"       ........       ",
"        ......        ",
"         ....         ",
"          ..          ",
"          ..          ",
"          ..          ",
"          ..          ",
"          ..          ",
"          ..          ",
"          ..          ",
"          ..          ",
"          ..          ",
"          ..          ",
"      ..........      ",
"    ..............    "};
