/* XPM */
static char * right_arrow_xpm[] = {
"16 16 59 1",
" 	c #FFFFFF",
".	c #C9E2F0",
"+	c #FEFFFF",
"@	c #0069AF",
"#	c #5FA4CF",
"$	c #0065AB",
"%	c #7BB2D6",
"&	c #006AAE",
"*	c #65BBEA",
"=	c #0061A7",
"-	c #79B0D3",
";	c #7CC9F3",
">	c #5EB7E7",
",	c #005FA4",
"'	c #7BAFD2",
")	c #007CC3",
"!	c #007AC1",
"~	c #0078BE",
"{	c #0075BB",
"]	c #0071B7",
"^	c #006DB3",
"/	c #6EC0ED",
"(	c #54B0E3",
"_	c #005CA1",
":	c #7AADD1",
"<	c #5DB6E7",
"[	c #5EB6E7",
"}	c #5DB6E6",
"|	c #48A8DE",
"1	c #005A9F",
"2	c #73A6CC",
"3	c #4CABE0",
"4	c #4BABE0",
"5	c #2C8FCB",
"6	c #7BACCF",
"7	c #39A0D9",
"8	c #399FD9",
"9	c #3A9FD9",
"0	c #3AA0D9",
"a	c #93B9D7",
"b	c #2794D2",
"c	c #2895D2",
"d	c #2894D2",
"e	c #2795D2",
"f	c #1E86C6",
"g	c #96BBD8",
"h	c #0077BE",
"i	c #178ACC",
"j	c #178BCC",
"k	c #117FC1",
"l	c #A3C4DE",
"m	c #0982C6",
"n	c #0778BD",
"o	c #96BEDB",
"p	c #0074BA",
"q	c #A3C7E1",
"r	c #96C0DE",
"s	c #95C2E0",
"t	c #D4E7F3",
"        .+      ",
"        @#+     ",
"        @$%     ",
"        &*=-+   ",
"        @;>,'   ",
")))!~{]^@//(_:+ ",
")<[[}[<[[<<<|12 ",
")334333333344516",
")78788999788051a",
")bcdededbccef1g ",
")h)!h{]^@ijk_l  ",
"        @mn,o   ",
"        @p=q    ",
"        @$r     ",
"        @s      ",
"        t       "};
