/* XPM */
static char const* Top_xpm[] = {
"16 16 129 2",
"  	c #FFFFFF",
". 	c #2FA6EA",
"+ 	c #63BCEE",
"@ 	c #5CB9EE",
"# 	c #5CB8EE",
"$ 	c #5CBBEE",
"% 	c #5CBBEF",
"& 	c #5DBBEF",
"* 	c #5DBCEF",
"= 	c #5BBCEF",
"- 	c #69C0EF",
"; 	c #39ADEC",
"> 	c #64B4EA",
", 	c #E7FFFF",
"' 	c #ABEEFF",
") 	c #B4F2FF",
"! 	c #B4F1FF",
"~ 	c #B3F1FF",
"{ 	c #B1F0FF",
"] 	c #CDFFFF",
"^ 	c #50B7EE",
"/ 	c #5BAAE6",
"( 	c #B3FFFF",
"_ 	c #6CE0FD",
": 	c #7AE4FF",
"< 	c #79E4FF",
"[ 	c #78E4FF",
"} 	c #76E4FF",
"| 	c #75E2FD",
"1 	c #86F3FF",
"2 	c #37A5E8",
"3 	c #4796DC",
"4 	c #48A2E1",
"5 	c #3D9ADE",
"6 	c #419EDF",
"7 	c #429CDF",
"8 	c #429FE1",
"9 	c #4BA3E3",
"0 	c #57A9E4",
"a 	c #57AAE4",
"b 	c #44A1E2",
"c 	c #42A1E2",
"d 	c #42A0E0",
"e 	c #41A0E1",
"f 	c #42A0E2",
"g 	c #43A3E2",
"h 	c #449CDF",
"i 	c #4388D4",
"j 	c #A2C4EA",
"k 	c #5B92D4",
"l 	c #6CB6E5",
"m 	c #3D99DC",
"n 	c #A6C3E9",
"o 	c #6890D1",
"p 	c #529BD9",
"q 	c #ACF7FF",
"r 	c #4CC4F2",
"s 	c #136AC8",
"t 	c #AFC6E8",
"u 	c #97B1DE",
"v 	c #3C86CE",
"w 	c #8FE5FC",
"x 	c #33B2ED",
"y 	c #41BDF0",
"z 	c #41B9F1",
"A 	c #125EC1",
"B 	c #C8D8EE",
"C 	c #A9BCE0",
"D 	c #236BBF",
"E 	c #92E8FC",
"F 	c #2FABEB",
"G 	c #2BA7E9",
"H 	c #2FA7E7",
"I 	c #33B0EC",
"J 	c #2FACED",
"K 	c #0F52B2",
"L 	c #CAD7ED",
"M 	c #C5D1E9",
"N 	c #175AB4",
"O 	c #80D7F5",
"P 	c #20A0E9",
"Q 	c #1C98E3",
"R 	c #239EE4",
"S 	c #219BE4",
"T 	c #1F99E2",
"U 	c #21A3E9",
"V 	c #1E92DE",
"W 	c #0A44A7",
"X 	c #D6DFF0",
"Y 	c #D6DEEE",
"Z 	c #063C9F",
"` 	c #6FD1F1",
" .	c #1DA1E7",
"..	c #0D8ADE",
"+.	c #1690DF",
"@.	c #1390DF",
"#.	c #128EDF",
"$.	c #108DDE",
"%.	c #108BDD",
"&.	c #1195E5",
"*.	c #0D86DB",
"=.	c #043A9F",
"-.	c #E6EBF5",
";.	c #C9D4E9",
">.	c #093C9D",
",.	c #5DCBF2",
"'.	c #0F9EEB",
").	c #0080DE",
"!.	c #088AE1",
"~.	c #0688E1",
"{.	c #0586E0",
"].	c #0487DE",
"^.	c #0386DF",
"/.	c #0386DE",
"(.	c #0283DC",
"_.	c #018EE6",
":.	c #0280D8",
"<.	c #013798",
"[.	c #C9D5E9",
"}.	c #3E66AF",
"|.	c #0D419D",
"1.	c #2C5CAD",
"2.	c #1C46A3",
"3.	c #1C4DA5",
"4.	c #1C4EA4",
"5.	c #1C4DA4",
"6.	c #1C54A9",
"7.	c #0B3F9C",
"8.	c #3E67B1",
"                                ",
"                                ",
". + @ # $ % & % % & & * * = - ; ",
"> , ' ) ! ! ~ ! ) ) ) ! ! { ] ^ ",
"/ ( _ : < < < [ [ [ [ [ } | 1 2 ",
"3 4 5 6 7 8 9 0 a b c d e f g h ",
"              i j               ",
"            k l m n             ",
"          o p q r s t           ",
"        u v w x y z A B         ",
"      C D E F G H I J K L       ",
"    M N O P Q R S T U V W X     ",
"  Y Z `  ...+.@.#.$.%.&.*.=.-.  ",
";.>.,.'.).!.~.{.].^./.(._.:.<.[.",
"}.|.1.2.3.3.3.3.4.5.5.5.5.6.7.8.",
"                                "};
