/* XPM */
static char const* up_arrow_xpm[] = {
"16 16 64 1",
" 	c #FFFFFF",
".	c #93B9D7",
"+	c #7BACCF",
"@	c #96BBD8",
"#	c #005A9F",
"$	c #73A6CC",
"%	c #FEFFFF",
"&	c #A3C4DE",
"*	c #5AB2E4",
"=	c #7AADD1",
"-	c #96BEDB",
";	c #005CA1",
">	c #75C5F0",
",	c #7BAFD2",
"'	c #A3C7E1",
")	c #005FA4",
"!	c #79B0D3",
"~	c #96C0DE",
"{	c #0061A7",
"]	c #55AFE1",
"^	c #6EC0ED",
"/	c #6DC0ED",
"(	c #6EC0EE",
"_	c #55AFE2",
":	c #7BB2D6",
"<	c #95C2E0",
"[	c #0065AB",
"}	c #4CAADE",
"|	c #64BAE9",
"1	c #63B9E9",
"2	c #63BAE9",
"3	c #4DAADE",
"4	c #5FA4CF",
"5	c #D4E7F3",
"6	c #0069AF",
"7	c #57B3E4",
"8	c #57B2E4",
"9	c #57B3E5",
"0	c #006AAE",
"a	c #C9E2F0",
"b	c #006DB3",
"c	c #49AADF",
"d	c #49A9DF",
"e	c #0071B7",
"f	c #3BA1D9",
"g	c #3AA1DA",
"h	c #3BA0DA",
"i	c #3AA1D9",
"j	c #0075BB",
"k	c #2C97D4",
"l	c #2C98D4",
"m	c #0077BE",
"n	c #1F8ECF",
"o	c #1F8FCF",
"p	c #1E8FCF",
"q	c #1E8ECF",
"r	c #0078BE",
"s	c #007AC1",
"t	c #1287CA",
"u	c #1187CA",
"v	c #007CC3",
"w	c #0781C6",
"x	c #0880C6",
"y	c #0781C5",
"       .+       ",
"      @##$%     ",
"     &#**#=     ",
"    -;*>>*;,%   ",
"   ')*>>>>*)!   ",
"  ~{]^/(//^_{:% ",
" <[}|11222223[4%",
"566666788966066a",
"     bcccdb     ",
"     efghie     ",
"     jkkllj     ",
"     mnopqr     ",
"     sttuus     ",
"     vwxywv     ",
"     mvvvvv     ",
"     vvvvvv     "};
