/* XPM */
static char * zoom_out_xpm[] = {
"16 16 6 1",
" 	c #FFFFFF",
".	c #DA251D",
"+	c #F3BAB8",
"@	c #EE9B97",
"#	c #E87B76",
"$	c #E4605A",
"                ",
"                ",
"                ",
"                ",
"                ",
"................",
".++++++++++++++.",
".@@@@@@@@@@@@@@.",
".##############.",
".$$$$$$$$$$$$$$.",
"................",
"                ",
"                ",
"                ",
"                ",
"                "};
