/* XPM */
static char * zoom_in_xpm[] = {
"16 16 53 1",
" 	c #FFFFFF",
".	c #005A9F",
"+	c #EBF3F8",
"@	c #80D4FF",
"#	c #DCEAF3",
"$	c #66C1F7",
"%	c #67C5FA",
"&	c #DFEBF4",
"*	c #54B0EB",
"=	c #55B3ED",
"-	c #E2EDF5",
";	c #4DA9E7",
">	c #4BA9E5",
",	c #F5F9FC",
"'	c #43A2E2",
")	c #42A0E1",
"!	c #3997D9",
"~	c #399BDE",
"{	c #3494D8",
"]	c #3493D8",
"^	c #3594D8",
"/	c #3391D6",
"(	c #318ED2",
"_	c #328FD4",
":	c #3697DC",
"<	c #2C8DD4",
"[	c #2F90D8",
"}	c #2B89D1",
"|	c #2B89D0",
"1	c #2A87CE",
"2	c #2A88CE",
"3	c #2481C9",
"4	c #2380C9",
"5	c #1E7EC8",
"6	c #DDEDF8",
"7	c #C6E0F2",
"8	c #C9E2F3",
"9	c #C6E1F2",
"0	c #D4E9F7",
"a	c #1877C4",
"b	c #1776C2",
"c	c #AFD2EA",
"d	c #CAE3F4",
"e	c #CEE5F4",
"f	c #1170BD",
"g	c #116FBE",
"h	c #E6F0F6",
"i	c #096BB9",
"j	c #096BBB",
"k	c #E0EDF4",
"l	c #0362B2",
"m	c #DFECF4",
"n	c #E2EEF5",
"     ......+    ",
"     .@@@@.#    ",
"     .$%$$.&    ",
"     .*=**.-    ",
"     .;;>;.,    ",
"......'')'......",
".!!!!!!!!!!!!!!.",
".~~{]^/((_^{]:~.",
".<[}}}|112}}}<<.",
".33333334333333.",
"......5555......",
"67890.aaba.cd88e",
"     .fgff.h    ",
"     .ijii.k    ",
"     .llll.m    ",
"     ......n    "};
